<svg data-name="Social Media Icons" id="Social_Media_Icons" viewBox="0 0 512 512" xmlns="http://www.w3.org/2000/svg"><defs><style>.cls-2{fill:#212121}</style></defs><g id="Spotify"><circle cx="256" cy="256" r="256" style="fill:#00b241"/><path class="cls-2" d="M402.84 208.76c-88.83-43.13-194.1-52.2-294.27-20.55C95 192.47 80.47 187 76 174.79c-4.48-12.16 4.3-26.94 19.66-31.73 111.45-34.86 228.92-24.7 328.41 23.84 13.75 6.69 18.94 21.86 12.24 32.94-6.73 11.1-21.44 14.73-33.47 8.92ZM378.1 289.83c-76.87-37.61-168.17-45.49-254.94-17.77-11 3.5-22.89-1-26.53-10.9-.27-.77-.54-1.54-.82-2.31-3.62-9.91 3.53-21.94 16-25.88 96.62-30.55 198.58-21.72 284.75 20.64 11.18 5.49 15.42 17.84 10 26.86-.42.7-.83 1.41-1.24 2.11-5.45 9.05-17.44 12.01-27.22 7.25ZM353 356.27c-65.36-32.2-143.14-38.92-217-15.1-8.82 2.84-18.31-.75-21.22-8.69-.45-1.25-.89-2.5-1.33-3.75-2.89-7.93 2.85-17.55 12.85-20.74 82.26-26.27 169.18-18.73 242.48 17.56 8.94 4.41 12.35 14.3 8 21.52l-2 3.42c-4.4 7.25-14 9.62-21.78 5.78Z"/></g></svg>